# xmcd CD database file
#
# Track frame offsets:
#	150
#	19442
#	38524
#	55887
#	73648
#	91512
#	109662
#	128097
#	144888
#	160501
#	175980
#	194612
#
# Disc length: 3044 seconds
#
# Revision: 0
# Processed by: cddbd v1.5.2PL0 Copyright (c) Steve Scherf et al.
# Submitted via: CDex 1.51
#
DISCID=960be20c
DTITLE=The Castle In My Mind - Believe
DYEAR=2014
DGENRE=Jazz
TTITLE0=Believe
TTITLE1=Frühling
TTITLE2=Enjoy The Silence
TTITLE3=Longing
TTITLE4=Gentle Rain
TTITLE5=Start Again
TTITLE6=Dawn
TTITLE7=Time
TTITLE8=Between The Lies
TTITLE9=Walk Of Fame
TTITLE10=Go on
TTITLE11=November - Starry Night
EXTD=YEAR: 2014
EXTT0=
EXTT1=
EXTT2=
EXTT3=
EXTT4=
EXTT5=
EXTT6=
EXTT7=
EXTT8=
EXTT9=
EXTT10=
EXTT11=
PLAYORDER=
